<svg
   width="145.65359mm"
   height="168.4091mm"
   viewBox="0 0 145.65359 168.4091"
   version="1.1"
   id="svg2664"
   xmlns="http://www.w3.org/2000/svg"
   xmlns:svg="http://www.w3.org/2000/svg">
 <path
    id="path1632"
    style="fill:#00758d;fill-opacity:1;fill-rule:nonzero;stroke:none"
    d="M 109.071,13.9551 108.88,13.9121 74.493,167.9941 0.146,84.6641 0,84.7951 l 74.601,83.614 0.041,-0.186 z m 19.6022,-9.5103 -52.009,161.591 -76.519,-81.373 -0.143,0.134 76.746,81.615 0.051,-0.158 52.061,-161.749 z M 145.4716,0 78.7786,164.015 0.1426,84.661 l -0.139,0.138 78.844,79.565 0.056,-0.137 66.75,-164.153 z M 134.991,43.7629 80.835,161.9359 0.141,84.6589 l -0.135,0.142 80.892,77.467 54.271,-118.423 z m -1.9872,16.2768 -50.17,99.761 -82.695,-75.144 -0.131,0.145 82.886,75.318 0.058,-0.116 50.227,-99.876 z m 9.4292,-7.4594 -57.656,105.034 -84.64,-72.959 -0.128,0.149 84.823,73.116 0.059,-0.106 57.714,-105.14 z m -8.4333,23.8208 -47.338,78.975 -86.526,-70.722 -0.124,0.151 86.702,70.866 47.454,-79.169 z m -0.5145,7.8511 -44.998,68.838 -88.354,-68.438 -0.12,0.155 88.522,68.568 45.114,-69.016 z m 6.7501,-3.1074 -49.983,69.611 -90.121,-66.105 -0.116,0.158 90.281,66.223 50.098,-69.773 z m -1.884,7.873 -46.396,59.359 -91.826,-63.728 -0.112,0.161 91.978,63.833 46.51,-59.504 z m 5.6371,-0.9721 -50.393,57.908 -93.468,-61.306 -0.108,0.164 93.612,61.4 0.056,-0.065 50.449,-57.972 z" />
</svg>
