<?xml version="1.0" encoding="UTF-8" standalone="no"?>
<svg
   width="144.38243mm"
   height="162.61801mm"
   viewBox="0 0 144.38243 162.61801"
   version="1.1"
   id="svg2664"
   xmlns="http://www.w3.org/2000/svg"
   xmlns:svg="http://www.w3.org/2000/svg">
  <defs
     id="defs152" />
  <path
     id="path1632"
     style="fill:#00758d;fill-opacity:1;fill-rule:nonzero;stroke:none"
     d="m 140.26961,123.68923 0.091,-0.17336 L 0.4288117,50.421227 100.16183,0.174931 100.07308,0 0,50.418137 l 0.1690506,0.08774 z m 4.11282,21.39572 L 1.7584363,53.025291 100.16329,0.174495 100.07087,0.001685 1.3735104,53.009113 1.5129269,53.099263 144.27609,145.25004 Z m -0.0544,17.37641 L 3.1631322,55.590666 100.1657,0.172449 100.06838,0.002468 2.8081656,55.566987 2.9260036,55.656537 144.20945,162.61801 Z M 104.7689,141.01121 4.6391531,58.115106 100.16815,0.171447 100.06592,0.004295 4.3021602,58.090032 104.64362,141.16192 Z M 89.561045,134.87897 6.1842705,60.598429 100.17084,0.169892 100.06469,0.005826 5.860611,60.573822 5.957647,60.659872 89.43075,135.02523 Z M 94.325816,145.91751 7.7932335,63.041298 100.17266,0.168515 100.06186,0.006313 7.4834252,63.015226 7.5705432,63.099646 94.190502,146.05932 Z M 73.499388,131.6063 9.4673723,65.441068 100.17415,0.16757 100.06039,0.008714 9.1689653,65.414944 73.358348,131.74243 Z M 66.04897,129.07731 11.202908,67.796 100.17664,0.165647 100.05798,0.009619 10.915196,67.768601 65.90317,129.20803 Z m 1.254464,7.32435 L 13.000924,70.105143 100.17848,0.164174 100.05589,0.011233 12.72294,70.076209 67.152166,136.52574 Z M 60.186315,132.54418 14.858092,72.365845 100.18093,0.16276 100.0544,0.012906 14.590803,72.335636 60.02958,132.66161 Z M 59.666303,138.24079 16.774138,74.577204 100.18248,0.161209 100.05202,0.014443 16.515612,74.545202 l 0.04829,0.07091 42.93949,63.734248 z" />
</svg>
